<svg width="121" height="35" viewBox="0 0 121 35" fill="none" xmlns="http://www.w3.org/2000/svg">
<g clip-path="url(#clip0_861_9728)">
<path d="M118.443 13.2247C116.226 14.4524 113.669 14.9072 111.17 14.5187C109.814 14.3263 108.494 13.9301 107.255 13.343C105.895 12.724 104.616 11.9364 103.449 10.9984C102.76 10.4627 102.76 11.1236 103.243 12.1811C105.028 15.8615 106.827 19.6671 108.757 23.3962C108.22 23.6902 107.668 23.9549 107.103 24.1893L105.393 24.9337L103.636 25.5459C103.05 25.7477 102.471 25.9773 101.871 26.1234C100.671 26.4365 99.4926 26.8191 98.2655 27.0209L96.4527 27.3966L94.612 27.654C89.7096 28.3149 84.7419 28.3149 79.8395 27.654C74.9416 26.9547 70.1294 25.7423 65.4806 24.0363C60.8419 22.3281 56.3113 20.3345 51.9143 18.0669C47.0889 15.611 42.3738 12.9325 37.6449 10.2957C35.2805 8.98081 32.9229 7.66591 30.5378 6.39273C28.1527 5.11956 25.7606 3.86726 23.2859 2.83063C20.8344 1.76064 18.2516 1.0282 15.6067 0.653011C12.9918 0.250633 10.3184 0.525886 7.83785 1.45303C6.62097 1.94175 5.48272 2.61003 4.46015 3.43591C3.43069 4.24244 2.53075 5.20458 1.79232 6.28836C0.344701 8.42423 -0.406614 11.1166 0.310301 13.5586C0.441276 14.1152 2.10259 13.5586 2.03365 13.1273C1.97664 12.8988 1.93734 12.6662 1.91635 12.4316C1.91635 12.202 1.91649 11.9724 1.88202 11.7358C1.84755 11.4993 1.93016 11.2767 1.94395 11.0401C1.97309 10.8051 2.01913 10.5726 2.08179 10.3444C2.33131 9.38219 2.74921 8.47275 3.31573 7.65891C4.60601 5.86111 6.37483 4.4692 8.41696 3.64457C8.91464 3.44115 9.42603 3.27378 9.94727 3.14367L10.7192 2.9976C10.9812 2.94194 11.2776 2.93497 11.5602 2.90019C12.7084 2.80753 13.8628 2.82847 15.0069 2.96278C17.4322 3.31598 19.801 3.98966 22.0521 4.96646C24.452 5.99387 26.7987 7.14325 29.0834 8.41026C38.5342 13.4403 47.8541 19.1314 57.9598 23.6536C61.9874 25.4791 66.133 27.0272 70.3679 28.2871C71.4295 28.5932 72.5119 28.8646 73.5804 29.1568L76.8753 29.8525L80.2048 30.3743L83.562 30.6873C88.0637 31.0028 92.5866 30.7457 97.0247 29.9221C101.52 29.1039 105.858 27.568 109.874 25.372C111.233 27.9363 112.741 30.4174 114.389 32.8024C114.508 32.9819 114.679 33.1203 114.879 33.1989C114.596 33.832 115.389 34.8548 115.878 34.2982C116.407 33.6962 116.904 33.0668 117.367 32.4127C117.815 31.717 118.229 31.0213 118.608 30.2769C118.994 29.5582 119.333 28.8145 119.621 28.0506C119.904 27.2644 120.145 26.4713 120.352 25.6851C120.571 24.8977 120.735 24.0956 120.841 23.2848C120.938 22.4639 121.007 21.643 121.034 20.836C121.07 20.0333 121.054 19.2292 120.986 18.4287C120.91 17.6147 120.8 16.8147 120.662 16.0424L120.759 15.9102C120.917 15.7015 120.759 15.4023 120.49 15.1728L120.311 14.3727C120.104 13.7535 118.96 12.9534 118.443 13.2247ZM115.258 24.7807C115.247 24.683 115.224 24.587 115.189 24.4954L115.051 24.1893L115.32 24.579L115.258 24.7807ZM115.065 25.4138C114.851 26.193 114.631 26.9792 114.417 27.7653C114.189 27.2505 113.941 26.7495 113.693 26.2486C114.072 26.186 114.258 25.699 113.817 25.0311L113.617 24.725L114.424 25.3164C114.511 25.3921 114.617 25.4416 114.73 25.4588C114.844 25.476 114.96 25.4604 115.065 25.4138ZM105.242 13.9552L105.442 14.0874C105.452 14.1785 105.475 14.2675 105.511 14.3518C105.593 14.5466 105.683 14.7344 105.773 14.9292L105.242 13.9552ZM106.682 14.804L106.875 14.9084C106.839 14.8979 106.801 14.8979 106.765 14.9084L106.682 14.804ZM107.179 15.0614C108.207 15.5655 109.28 15.9685 110.384 16.265C110.389 16.3406 110.403 16.4154 110.426 16.4877C110.612 16.9399 110.805 17.3851 110.991 17.8304C110.66 17.8304 110.515 18.1713 110.805 18.7766L111.398 20.0428C109.986 18.6907 108.726 17.1858 107.641 15.5554C107.515 15.3655 107.359 15.1985 107.179 15.0614ZM111.487 16.4529C111.901 16.5224 112.314 16.5711 112.728 16.5989C113.169 17.4129 113.603 18.2409 114.017 19.0827C113.859 18.8646 113.65 18.6881 113.41 18.5679L111.487 16.4529ZM114.824 16.585C115.897 16.4776 116.954 16.2442 117.974 15.8893C117.995 16.0369 117.995 16.1869 117.974 16.3346C117.622 16.1328 117.284 16.0911 117.229 16.418L117.133 16.9398C116.755 16.9524 116.378 16.8812 116.03 16.7312C115.472 16.592 115.416 17.0373 115.658 17.5104L114.824 16.585ZM119.001 18.0599C119.051 19.2431 119.026 20.4283 118.925 21.6082C118.785 22.7808 118.569 23.9429 118.277 25.0868C117.991 26.2608 117.613 27.41 117.147 28.5236C116.696 29.6748 116.171 30.7951 115.575 31.8771C115.575 31.8771 115.575 31.8214 115.534 31.7866L114.844 30.6456C114.937 30.6569 115.031 30.6353 115.11 30.5846C115.19 30.5339 115.249 30.4571 115.279 30.3673C115.789 28.6976 116.25 27.0139 116.699 25.4973C116.926 25.379 117.036 25.0728 116.919 24.6693L117.078 23.9736C117.34 23.904 117.484 23.6397 117.285 23.2013C117.498 22.3665 117.719 21.5734 117.939 20.8081C117.939 20.8081 117.988 20.8081 118.008 20.8081C118.634 20.0956 118.958 19.164 118.911 18.2131L119.001 18.0599ZM111.204 24.579L111.453 24.4328C112.096 25.5573 112.674 26.7188 113.183 27.9114L111.204 24.579ZM110.088 22.6657L110.005 22.5265C110.061 22.5658 110.125 22.5941 110.191 22.61L110.088 22.6657Z" fill="#7DFFAF"/>
</g>
<defs>
<clipPath id="clip0_861_9728">
<rect width="121" height="34" fill="white" transform="matrix(1 0 0 -1 0 34.5)"/>
</clipPath>
</defs>
</svg>
