<svg width="24" height="24" viewBox="0 0 24 24" fill="none" xmlns="http://www.w3.org/2000/svg">
<g clip-path="url(#clip0_316_895)">
<path fill-rule="evenodd" clip-rule="evenodd" d="M23.7362 0.264038H0.26416V23.7362H23.7362V0.264038ZM18.8765 15.3291C20.9449 16.1678 21.6431 17.0672 21.815 18.138C21.9802 19.0596 21.7747 19.6574 21.7438 19.747C20.9807 22.3574 16.7259 22.4421 15.0257 20.7175C14.9743 20.6595 14.9257 20.6054 14.8795 20.554C14.6023 20.2457 14.4106 20.0325 14.2269 19.6309L14.2274 19.6306C15.1307 19.1112 15.1308 19.1111 16.0097 18.6025C16.4872 19.3365 16.929 19.7402 17.7232 19.9054C18.801 20.037 19.8853 19.6665 19.6421 18.522C19.4972 17.9801 18.7787 17.6759 17.9409 17.3211C17.3334 17.0639 16.6632 16.7802 16.1034 16.36C14.7514 15.4519 14.4345 13.2454 15.5456 11.9847C15.9159 11.5183 16.5474 11.1705 17.21 11.0031L17.9015 10.9137C19.229 10.8869 20.0591 11.2373 20.6683 11.9177C20.8378 12.0895 20.976 12.2747 21.2349 12.6762C21.0883 12.7696 20.9721 12.8435 20.8711 12.9078C20.4849 13.1535 20.3197 13.2586 19.5169 13.7785C19.3003 13.3122 18.9412 13.0199 18.5619 12.8927C17.973 12.7142 17.2299 12.9083 17.076 13.5308C17.0224 13.7226 17.0336 13.9011 17.1184 14.218C17.3116 14.6587 17.8732 14.8976 18.4612 15.1478C18.5997 15.2067 18.7396 15.2662 18.8765 15.3291ZM10.8287 11.0519H13.0241C13.0241 11.7216 13.0253 12.3906 13.0265 13.0592C13.029 14.4061 13.0314 15.7511 13.0239 17.0963C13.0246 17.2785 13.0275 17.4581 13.0303 17.635C13.0469 18.6553 13.0618 19.5816 12.6358 20.367C12.29 21.07 11.6297 21.5318 10.8643 21.7547C9.68829 22.0247 8.56386 21.8708 7.72723 21.3687C7.16717 21.0252 6.72992 20.4964 6.43311 19.8872L8.21811 18.7941C8.23228 18.8 8.27167 18.8692 8.32492 18.9629C8.33084 18.9733 8.33693 18.984 8.34317 18.9949C8.57061 19.3763 8.76692 19.6461 9.15298 19.8359C9.53229 19.9652 10.3646 20.0479 10.6858 19.3808C10.8424 19.1102 10.8343 18.3511 10.8247 17.4422C10.8222 17.2119 10.8197 16.9719 10.8197 16.7278L10.8287 11.0519Z" fill="#F5F6F6"/>
</g>
<defs>
<clipPath id="clip0_316_895">
<rect width="24" height="24" fill="white"/>
</clipPath>
</defs>
</svg>
